<?xml version="1.0" standalone="no"?>
<!DOCTYPE svg PUBLIC "-//W3C//DTD SVG 20010904//EN"
 "http://www.w3.org/TR/2001/REC-SVG-20010904/DTD/svg10.dtd">
<svg version="1.0" xmlns="http://www.w3.org/2000/svg"
 width="440.000000pt" height="280.000000pt" viewBox="0 0 440.000000 280.000000"
 preserveAspectRatio="xMidYMid meet">

<g transform="translate(0.000000,280.000000) scale(0.100000,-0.100000)"
fill="#000000" stroke="none">
<path d="M200 2508 l0 -93 58 -35 c31 -19 66 -40 77 -46 11 -6 175 -105 365
-219 190 -114 354 -213 365 -219 11 -6 52 -30 91 -54 l71 -43 148 3 149 3
-624 375 c-344 206 -641 385 -662 398 l-38 23 0 -93z"/>
<path d="M686 2592 c5 -5 218 -134 474 -287 256 -154 501 -301 544 -327 44
-26 83 -48 88 -48 4 0 8 151 8 335 l0 335 -562 0 c-309 0 -558 -4 -552 -8z"/>
<path d="M1960 2120 l0 -480 -880 0 -880 0 0 -240 0 -240 880 0 880 0 0 -480
0 -480 -80 0 -80 0 0 336 c0 294 -2 335 -15 330 -8 -3 -263 -154 -566 -336
l-551 -331 -74 3 -75 3 641 384 c352 211 640 390 640 398 0 10 -29 13 -132 13
l-131 0 -663 -397 -662 -398 87 -6 c47 -4 927 -6 1956 -6 1029 1 1781 3 1673
4 l-198 3 -392 236 c-216 130 -463 278 -548 330 -85 51 -163 96 -173 99 -16 7
-17 -13 -17 -329 l0 -336 -80 0 -80 0 0 480 0 480 880 0 880 0 0 -80 0 -80
-429 -2 -430 -3 427 -256 427 -256 3 -47 c2 -25 1 -46 -2 -46 -3 0 -234 137
-514 305 l-509 306 -148 -3 -148 -3 659 -396 659 -396 7 46 c3 25 6 530 5
1121 0 591 -3 1046 -6 1011 l-6 -64 -426 -256 -427 -256 429 -3 429 -2 0 -80
0 -80 -880 0 -880 0 0 480 0 480 -240 0 -240 0 0 -480z"/>
<path d="M2600 2265 c0 -184 4 -335 8 -335 8 0 1048 622 1097 655 17 12 -61
14 -542 14 l-563 1 0 -335z"/>
<path d="M3243 2212 c-354 -213 -643 -393 -643 -399 0 -10 33 -13 132 -13
l133 0 645 387 c355 213 654 393 665 400 16 11 -4 13 -135 12 l-155 0 -642
-387z"/>
<path d="M200 2060 l0 -260 432 0 c237 0 429 2 427 4 -5 4 -548 331 -736 442
l-123 73 0 -259z"/>
<path d="M200 739 c0 -143 3 -258 8 -256 4 3 196 118 427 257 231 139 422 254
424 256 2 2 -190 4 -427 4 l-432 0 0 -261z"/>
</g>
</svg>
